<?xml version="1.0" standalone="no"?>
<!DOCTYPE svg PUBLIC "-//W3C//DTD SVG 20010904//EN"
 "http://www.w3.org/TR/2001/REC-SVG-20010904/DTD/svg10.dtd">
<svg version="1.0" xmlns="http://www.w3.org/2000/svg"
 width="612.000000pt" height="408.000000pt" viewBox="0 0 612.000000 408.000000"
 preserveAspectRatio="xMidYMid meet">

<g transform="translate(0.000000,408.000000) scale(0.100000,-0.100000)"
fill="#000000" stroke="none">
<path d="M2980 3323 c-14 -2 -54 -13 -90 -25 -224 -71 -400 -260 -451 -484
-14 -62 -6 -100 22 -109 35 -12 65 18 73 72 7 57 49 150 100 220 69 96 198
186 306 213 25 6 52 14 60 17 8 3 26 7 40 8 40 4 42 4 34 17 -5 7 -2 9 8 6 8
-4 15 -1 15 7 0 14 -34 14 -55 1 -7 -4 -12 -4 -11 1 4 20 -2 27 -12 13 -9 -13
-10 -13 -6 1 3 9 1 21 -4 26 -6 6 -4 10 5 10 8 0 12 -5 9 -10 -4 -6 -1 -7 7
-2 9 6 11 4 5 -5 -6 -9 -4 -11 5 -5 8 5 11 4 7 -2 -3 -5 1 -10 9 -10 9 0 11 4
5 10 -5 5 -7 17 -4 26 4 12 3 13 -5 2 -7 -9 -12 -10 -16 -2 -7 11 -12 12 -56
4z m50 -76 c0 -2 -8 -3 -18 -3 -10 0 -19 6 -19 13 0 8 6 9 19 2 10 -5 18 -11
18 -12z"/>
<path d="M3070 3311 c0 -5 5 -13 10 -16 6 -3 10 -2 10 4 0 5 -4 13 -10 16 -5
3 -10 2 -10 -4z"/>
<path d="M2975 3130 c-148 -26 -311 -179 -354 -332 -15 -53 -8 -84 20 -93 34
-11 55 4 69 48 43 147 163 255 315 287 62 13 80 29 71 66 -5 20 -12 25 -26 21
-11 -3 -18 -1 -14 4 6 10 -21 10 -81 -1z"/>
<path d="M2920 2878 l-95 -63 -3 -87 c-1 -49 -5 -88 -8 -88 -3 0 -14 5 -25 10
-16 9 -35 2 -105 -40 -47 -27 -90 -50 -94 -50 -5 0 -16 -7 -24 -16 -14 -13
-16 -54 -16 -294 0 -274 0 -278 -21 -283 -12 -3 -19 -12 -17 -19 4 -10 86 -14
414 -16 225 -1 415 0 421 3 21 8 2 35 -26 36 -14 1 10 5 54 9 98 9 176 42 240
101 51 47 108 148 99 173 -3 9 -1 16 5 16 15 0 14 33 -1 49 -7 8 -8 11 -2 8
10 -6 12 40 5 88 0 5 -65 -54 -143 -131 -79 -78 -151 -144 -161 -147 -9 -4
-28 -2 -41 3 -33 12 -236 215 -236 235 0 31 20 55 46 55 16 0 43 -17 75 -47
l50 -47 112 114 c62 62 105 108 95 101 -13 -9 -18 -9 -24 1 -4 7 -3 10 1 5 5
-4 17 1 28 10 10 10 22 17 26 17 3 -1 4 3 2 10 -8 25 -5 41 7 38 8 -1 11 2 7
8 -5 8 -11 7 -22 -1 -12 -10 -16 -10 -23 1 -5 8 -6 19 -4 25 3 5 -2 1 -11 -10
-17 -20 -17 -20 -11 1 5 18 1 23 -21 29 -42 12 -63 13 -69 3 -3 -4 -14 -8 -25
-8 -11 0 -18 3 -16 8 3 4 -9 7 -26 6 -32 -1 -32 -1 -37 59 -5 55 -7 60 -40 78
-55 30 -227 109 -237 109 -5 0 -51 -28 -103 -62z m100 -448 l0 -450 -30 0 -30
0 0 293 0 293 -45 22 -45 22 0 94 0 94 63 41 c34 22 68 40 75 40 9 1 12 -95
12 -449z m397 238 c-3 -8 -6 -5 -6 6 -1 11 2 17 5 13 3 -3 4 -12 1 -19z m60
-3 c5 -4 2 -4 -6 0 -11 6 -13 4 -7 -10 5 -14 4 -16 -7 -7 -8 7 -16 10 -19 7
-2 -3 -5 2 -5 10 0 15 30 15 44 0z m63 -65 c8 -15 8 -18 -3 -14 -8 3 -14 11
-14 19 0 20 4 19 17 -5z m-780 -315 l0 -306 -76 3 -77 3 -1 258 c-1 210 2 261
13 270 16 14 123 74 134 76 4 0 7 -136 7 -304z"/>
<path d="M2668 2466 c-10 -7 -18 -26 -18 -44 0 -30 1 -30 30 -19 25 9 30 17
30 44 0 35 -13 41 -42 19z"/>
<path d="M2668 2349 c-11 -6 -18 -22 -18 -39 0 -34 -1 -34 34 -20 20 7 26 16
26 40 0 31 -12 37 -42 19z"/>
<path d="M2673 2228 c-17 -8 -23 -20 -23 -45 0 -37 -1 -37 34 -23 21 8 26 16
26 45 0 38 -3 39 -37 23z"/>
<path d="M3566 2608 c3 -5 10 -6 15 -3 13 9 11 12 -6 12 -8 0 -12 -4 -9 -9z"/>
<path d="M3699 2603 c-13 -16 -12 -17 4 -4 9 7 17 15 17 17 0 8 -8 3 -21 -13z"/>
<path d="M3763 2613 c4 -3 -1 -12 -11 -20 -15 -13 -15 -13 6 -3 23 11 30 30
10 30 -6 0 -8 -3 -5 -7z"/>
<path d="M3665 2590 c-3 -5 -3 -10 1 -10 4 0 -6 -10 -22 -22 -16 -13 -32 -23
-35 -23 -16 0 -279 -278 -279 -294 0 -50 64 -56 105 -8 15 17 78 83 139 146
61 62 106 111 101 108 -7 -3 -10 5 -9 21 1 15 2 36 3 46 0 11 4 16 9 12 10
-11 9 -30 -3 -38 -7 -5 -6 -11 1 -18 8 -8 14 -7 24 5 7 8 9 15 5 15 -4 0 -2 7
5 15 7 8 16 12 21 9 5 -3 9 0 9 5 0 14 -17 14 -25 0 -5 -7 -13 -4 -26 7 -10 9
-16 21 -13 25 3 5 3 9 0 9 -3 0 -8 -4 -11 -10z m-5 -38 c0 -5 -7 -17 -15 -28
-14 -18 -14 -17 -4 9 12 27 19 34 19 19z"/>
<path d="M3030 1520 l0 -220 40 0 40 0 0 220 0 220 -40 0 -40 0 0 -220z"/>
<path d="M1414 1721 c-2 -2 -4 -98 -4 -213 l0 -208 45 0 45 0 0 209 0 209 -41
4 c-22 2 -42 2 -45 -1z"/>
<path d="M2300 1516 l0 -216 40 0 40 0 0 69 0 68 80 6 c59 4 87 11 110 27 84
60 78 189 -12 236 -22 12 -67 18 -145 22 l-113 5 0 -217z m222 117 c11 -10 18
-30 18 -54 0 -51 -27 -69 -102 -69 l-58 0 0 70 0 70 62 0 c43 0 67 -5 80 -17z"/>
<path d="M4385 1723 c-35 -9 -84 -53 -107 -96 -31 -59 -33 -205 -3 -256 42
-72 114 -99 195 -75 54 16 84 47 100 102 32 118 -91 210 -203 153 -36 -19 -37
-19 -37 1 0 28 26 74 52 92 25 18 74 21 112 6 22 -8 28 -6 43 16 14 22 14 27
2 35 -37 24 -106 33 -154 22z m98 -244 c25 -30 22 -75 -8 -104 -61 -62 -168 5
-135 85 21 51 106 63 143 19z"/>
<path d="M4733 1719 c-41 -12 -87 -69 -103 -125 -16 -56 -8 -169 14 -211 40
-77 114 -110 194 -87 56 16 80 38 105 94 26 57 27 168 3 225 -40 95 -116 132
-213 104z m117 -81 c43 -46 51 -168 17 -235 -33 -62 -98 -67 -140 -11 -23 30
-34 122 -23 181 15 78 99 115 146 65z"/>
<path d="M3909 1710 c-6 -57 -9 -55 79 -60 l82 -5 -45 -50 c-29 -33 -45 -59
-45 -77 0 -26 3 -28 40 -28 74 0 112 -35 95 -89 -14 -46 -97 -58 -147 -21
l-30 22 -20 -22 c-11 -11 -17 -27 -15 -34 9 -24 91 -56 143 -56 114 0 186 98
139 190 -15 30 -61 60 -90 60 -23 0 -19 7 39 71 42 47 52 65 48 84 l-4 25
-134 0 c-82 0 -134 -4 -135 -10z"/>
<path d="M1691 1603 c-26 -13 -36 -14 -39 -5 -2 7 -19 12 -38 12 l-34 0 0
-155 0 -155 40 0 40 0 0 109 c0 102 2 111 22 125 26 18 61 20 89 6 17 -10 19
-22 19 -125 l0 -115 40 0 40 0 0 119 c0 66 -4 131 -10 145 -19 52 -104 71
-169 39z"/>
<path d="M2051 1603 c-26 -13 -36 -14 -39 -5 -2 7 -19 12 -38 12 l-34 0 0
-155 0 -155 40 0 40 0 0 109 c0 102 2 111 22 125 26 18 61 20 89 6 17 -10 19
-22 19 -125 l0 -115 40 0 40 0 0 121 c0 95 -4 127 -17 149 -30 51 -98 65 -162
33z"/>
<path d="M3228 1603 c-46 -29 -62 -89 -34 -129 8 -11 41 -29 73 -39 73 -24
102 -47 83 -69 -17 -22 -69 -20 -107 4 l-32 19 -21 -26 -21 -27 23 -18 c48
-36 179 -35 213 2 9 10 19 36 22 57 7 53 -23 86 -102 111 -46 14 -61 24 -63
40 -5 30 38 39 90 18 38 -15 42 -14 54 2 20 26 17 40 -16 57 -39 20 -128 19
-162 -2z"/>
<path d="M3555 1601 c-45 -27 -62 -51 -76 -102 -16 -59 1 -126 42 -165 54 -52
160 -60 225 -18 29 20 31 35 3 52 -17 11 -28 10 -65 -4 -37 -14 -48 -15 -74
-4 -29 12 -60 44 -60 62 0 5 54 8 120 8 l120 0 0 33 c-1 49 -35 114 -72 137
-43 26 -122 27 -163 1z m138 -73 c27 -33 16 -43 -53 -46 -77 -4 -90 1 -83 28
13 49 100 61 136 18z"/>
<path d="M2671 1481 c4 -143 11 -160 77 -188 37 -15 91 -5 125 25 15 14 17 13
17 -1 0 -13 9 -17 40 -17 l40 0 0 155 0 155 -40 0 -40 0 0 -100 c0 -94 -2
-103 -25 -125 -29 -30 -68 -32 -95 -5 -17 17 -20 33 -20 125 l0 105 -41 0 -41
0 3 -129z"/>
<path d="M1627 1107 c-23 -18 -29 -31 -29 -60 0 -51 25 -77 72 -77 45 0 80 30
80 70 0 42 -9 59 -41 75 -38 20 -49 19 -82 -8z m84 -28 c30 -30 8 -89 -34 -89
-48 0 -74 61 -41 94 21 22 50 20 75 -5z"/>
<path d="M3093 1110 c-32 -19 -38 -36 -33 -85 3 -35 30 -55 72 -55 47 0 68 18
68 59 0 27 -3 31 -25 29 -26 -2 -36 -28 -10 -28 18 0 19 -12 3 -28 -18 -18
-53 -15 -71 6 -40 44 -3 99 58 88 41 -8 47 6 10 22 -34 15 -34 15 -72 -8z"/>
<path d="M1420 1045 c0 -43 4 -75 10 -75 6 0 10 14 10 30 0 28 2 30 40 30 38
0 40 -2 40 -30 0 -20 5 -30 15 -30 12 0 15 15 15 75 0 60 -3 75 -15 75 -10 0
-15 -10 -15 -30 0 -28 -2 -30 -40 -30 -38 0 -40 2 -40 30 0 17 -4 30 -10 30
-6 0 -10 -32 -10 -75z"/>
<path d="M1775 1110 c-4 -6 5 -10 19 -10 25 0 26 -2 26 -65 0 -51 3 -65 15
-65 12 0 15 14 15 65 0 63 1 65 25 65 14 0 25 5 25 10 0 6 -26 10 -59 10 -33
0 -63 -4 -66 -10z"/>
<path d="M1932 1048 l3 -73 53 -3 c31 -2 52 1 52 7 0 6 -18 11 -40 11 -33 0
-40 3 -40 20 0 16 7 20 36 20 45 0 42 24 -4 28 -24 2 -32 8 -32 23 0 16 7 19
40 19 22 0 40 5 40 10 0 6 -25 10 -55 10 l-55 0 2 -72z"/>
<path d="M2090 1045 l0 -75 50 0 c28 0 50 5 50 10 0 6 -16 10 -35 10 l-35 0 0
65 c0 51 -3 65 -15 65 -12 0 -15 -15 -15 -75z"/>
<path d="M2300 1045 c0 -59 3 -75 14 -75 11 0 16 15 18 53 l3 52 19 -37 c11
-21 24 -38 28 -38 5 0 19 17 31 38 l22 37 3 -52 c2 -37 7 -53 17 -53 10 0 14
18 14 75 0 67 -2 75 -19 75 -10 0 -21 -8 -24 -17 -4 -10 -15 -29 -25 -42 l-18
-24 -23 42 c-14 24 -31 41 -42 41 -16 0 -18 -9 -18 -75z"/>
<path d="M2563 1103 c-3 -10 -17 -42 -30 -72 -27 -63 -27 -61 -9 -61 8 0 16 7
20 15 8 21 72 20 84 -1 5 -9 14 -15 19 -13 6 2 0 33 -16 74 -27 71 -55 95 -68
58z m47 -70 c0 -7 -11 -13 -25 -13 -29 0 -28 -2 -14 40 l12 33 13 -24 c7 -13
13 -30 14 -36z"/>
<path d="M2700 1045 c0 -59 3 -75 14 -75 11 0 16 14 18 51 l3 50 38 -50 c54
-73 67 -68 67 24 0 59 -3 75 -14 75 -11 0 -16 -15 -18 -52 l-3 -53 -38 53
c-55 74 -67 70 -67 -23z"/>
<path d="M2936 1111 c-4 -5 -18 -39 -31 -75 -19 -51 -22 -66 -11 -66 8 0 16 7
20 15 3 9 19 15 41 15 22 0 38 -6 41 -15 4 -8 12 -15 20 -15 17 0 19 -7 -15
75 -26 65 -51 90 -65 66z m38 -68 c6 -20 4 -23 -18 -23 -30 0 -29 -2 -15 40
12 34 19 30 33 -17z"/>
<path d="M3250 1045 l0 -75 55 0 c30 0 55 5 55 10 0 6 -18 10 -40 10 -33 0
-40 3 -40 19 0 15 8 21 33 23 17 2 32 8 32 13 0 6 -15 11 -32 13 -25 2 -33 8
-33 23 0 16 7 19 40 19 22 0 40 5 40 10 0 6 -25 10 -55 10 l-55 0 0 -75z"/>
<path d="M3410 1045 c0 -43 4 -75 10 -75 6 0 10 20 10 45 0 25 5 45 10 45 6 0
10 -3 10 -7 0 -5 9 -19 19 -32 l18 -24 27 39 26 39 0 -53 c0 -40 4 -52 15 -52
12 0 15 15 15 75 0 67 -2 75 -19 75 -11 0 -23 -12 -31 -30 -22 -53 -36 -56
-60 -11 -33 66 -50 55 -50 -34z"/>
<path d="M3630 1045 l0 -75 50 0 c28 0 50 5 50 10 0 6 -18 10 -40 10 -33 0
-40 3 -40 20 0 16 7 20 35 20 45 0 48 25 3 28 -38 3 -42 6 -35 27 4 9 19 15
42 15 19 0 35 5 35 10 0 6 -22 10 -50 10 l-50 0 0 -75z"/>
<path d="M3780 1044 c0 -56 3 -75 13 -71 6 2 13 19 14 38 1 19 2 41 2 49 1 8
18 -9 39 -38 52 -72 62 -68 62 23 0 85 -17 103 -22 23 l-3 -53 -40 53 c-55 73
-65 69 -65 -24z"/>
<path d="M3950 1110 c0 -5 11 -10 25 -10 24 0 25 -2 25 -65 0 -51 3 -65 15
-65 12 0 15 14 15 65 0 63 1 65 25 65 14 0 25 5 25 10 0 6 -28 10 -65 10 -37
0 -65 -4 -65 -10z"/>
<path d="M4180 1045 l0 -75 55 0 c30 0 55 5 55 10 0 6 -18 10 -40 10 -33 0
-40 3 -40 20 0 16 7 20 36 20 45 0 42 24 -4 28 -24 2 -32 8 -32 23 0 16 7 19
40 19 22 0 40 5 40 10 0 6 -25 10 -55 10 l-55 0 0 -75z"/>
<path d="M4340 1045 c0 -43 4 -75 10 -75 6 0 10 11 10 25 0 15 6 25 15 25 8 0
22 -11 31 -25 9 -14 23 -25 31 -25 13 0 13 3 -1 25 -15 23 -15 28 -1 47 8 13
15 28 15 35 0 23 -32 43 -71 43 l-39 0 0 -75z m64 49 c23 -9 20 -41 -4 -49
-25 -8 -40 1 -40 24 0 29 14 37 44 25z"/>
<path d="M4500 1045 c0 -41 4 -75 9 -75 5 0 11 10 13 23 2 16 11 23 33 25 40
5 55 19 55 53 0 34 -23 49 -74 49 l-36 0 0 -75z m71 45 c15 -9 17 -15 9 -30
-21 -39 -72 -16 -56 25 6 18 20 19 47 5z"/>
</g>
</svg>
