<?xml version="1.0" standalone="no"?>
<!DOCTYPE svg PUBLIC "-//W3C//DTD SVG 20010904//EN"
 "http://www.w3.org/TR/2001/REC-SVG-20010904/DTD/svg10.dtd">
<svg version="1.0" xmlns="http://www.w3.org/2000/svg"
 width="612.000000pt" height="408.000000pt" viewBox="0 0 612.000000 408.000000"
 preserveAspectRatio="xMidYMid meet">

<g transform="translate(0.000000,408.000000) scale(0.100000,-0.100000)"
fill="#000000" stroke="none">
<path d="M2985 3244 c-103 -20 -136 -30 -191 -54 -166 -75 -293 -217 -355
-399 -22 -62 -25 -131 -7 -149 16 -16 53 -15 65 1 5 6 19 46 31 88 12 42 34
97 49 124 37 67 140 173 205 212 53 33 186 73 239 73 19 0 34 8 45 25 15 23
15 27 0 50 -9 14 -20 25 -25 25 -5 0 -15 2 -23 4 -7 2 -22 2 -33 0z"/>
<path d="M2897 3039 c-124 -49 -218 -137 -273 -256 -50 -107 -42 -159 23 -151
25 3 31 11 49 65 50 144 160 234 332 268 37 7 51 40 32 74 -9 17 -20 21 -63
20 -29 -1 -74 -10 -100 -20z"/>
<path d="M2900 2814 c-47 -30 -91 -62 -97 -71 -8 -10 -13 -48 -13 -95 l0 -78
-25 12 c-17 8 -28 8 -37 0 -7 -5 -40 -25 -73 -42 -33 -18 -75 -44 -92 -57
l-33 -24 0 -266 c0 -236 -2 -267 -17 -278 -10 -7 -14 -19 -10 -29 6 -15 42
-16 409 -14 345 3 403 5 403 18 0 8 -11 17 -25 21 -17 5 -8 7 33 8 153 3 296
106 340 245 18 55 23 181 9 190 -5 3 -71 -58 -148 -135 -118 -118 -143 -139
-169 -139 -25 0 -48 18 -134 103 -121 121 -125 127 -105 155 23 34 54 27 106
-25 l48 -48 143 143 142 143 -25 19 c-49 38 -130 62 -202 58 l-67 -3 -3 59 -3
59 -125 63 c-69 35 -129 63 -135 63 -5 0 -48 -24 -95 -55z m86 -457 l-1 -432
-27 -3 -28 -3 0 290 0 290 -42 23 -43 23 -3 87 -3 87 68 44 c37 25 71 41 74
36 3 -5 5 -204 5 -442z m-246 -138 l0 -289 -75 0 -75 0 0 253 0 252 68 41 c37
23 70 39 75 37 4 -2 7 -134 7 -294z"/>
<path d="M2643 2400 c-13 -5 -20 -16 -18 -27 2 -10 4 -26 4 -35 1 -14 5 -15
31 -7 25 9 30 16 30 45 0 36 -8 40 -47 24z"/>
<path d="M2653 2290 c-18 -7 -23 -17 -23 -45 0 -39 0 -39 35 -23 19 9 25 19
25 45 0 35 -3 37 -37 23z"/>
<path d="M2653 2170 c-18 -7 -23 -17 -23 -45 0 -37 8 -42 41 -25 13 8 19 21
19 45 0 37 -2 39 -37 25z"/>
<path d="M3482 2396 c-151 -152 -192 -199 -192 -219 0 -30 30 -51 59 -42 26 8
391 382 391 400 0 19 -35 55 -53 55 -7 0 -99 -87 -205 -194z"/>
<path d="M3008 1688 c-3 -11 -3 -159 1 -376 l1 -63 38 3 37 3 0 219 0 219 -36
4 c-24 2 -38 -1 -41 -9z"/>
<path d="M1450 1465 l0 -215 40 0 40 0 0 215 0 215 -40 0 -40 0 0 -215z"/>
<path d="M2300 1465 l0 -215 40 0 40 0 0 70 0 70 48 0 c74 1 123 16 156 50 28
28 31 36 31 96 0 61 -2 68 -32 94 -42 38 -89 50 -195 50 l-88 0 0 -215z m215
121 c24 -17 26 -80 3 -102 -9 -9 -41 -18 -77 -21 l-61 -6 0 72 0 71 58 0 c34
0 66 -6 77 -14z"/>
<path d="M3850 1640 l0 -40 82 0 82 0 -47 -48 c-36 -37 -47 -55 -47 -80 0 -32
1 -32 48 -32 39 0 53 -5 72 -25 20 -21 22 -30 14 -53 -14 -39 -57 -57 -104
-43 -21 6 -43 18 -49 25 -11 13 -15 12 -32 -2 -28 -24 -23 -48 15 -71 45 -28
147 -29 192 -2 33 20 64 75 64 113 0 38 -35 85 -78 104 l-41 17 50 57 c36 42
49 65 49 88 l0 32 -135 0 -135 0 0 -40z"/>
<path d="M4298 1667 c-77 -35 -112 -102 -113 -217 0 -75 3 -91 27 -131 32 -54
72 -75 139 -73 59 2 104 26 126 67 22 42 22 117 -1 152 -33 50 -122 70 -180
40 -35 -19 -38 -17 -30 24 13 64 86 98 150 69 23 -11 28 -10 40 7 21 29 13 47
-26 61 -44 16 -97 16 -132 1z m85 -218 c30 -16 37 -28 37 -65 0 -41 -32 -74
-73 -74 -50 0 -77 24 -77 68 0 42 6 54 35 70 26 15 51 15 78 1z"/>
<path d="M4630 1659 c-20 -11 -47 -37 -60 -56 -23 -33 -25 -46 -25 -142 0 -96
2 -109 25 -143 35 -51 68 -68 135 -68 75 0 109 21 141 87 23 46 26 62 23 135
-3 59 -10 94 -25 123 -40 77 -140 107 -214 64z m128 -72 c53 -56 50 -214 -5
-257 -65 -51 -128 -1 -133 105 -5 91 0 113 26 144 32 39 80 42 112 8z"/>
<path d="M1610 1410 l0 -160 40 0 40 0 0 108 c0 120 10 142 63 142 49 0 57
-21 57 -141 l0 -109 40 0 40 0 0 131 0 131 -29 29 c-36 36 -98 40 -148 9 -33
-20 -33 -20 -33 0 0 16 -7 20 -35 20 l-35 0 0 -160z"/>
<path d="M1973 1562 c-23 -3 -23 -5 -23 -158 l0 -154 45 0 45 0 0 109 c0 86 3
113 16 125 21 22 60 20 84 -4 17 -17 20 -33 20 -125 l0 -105 41 0 41 0 -4 131
-3 131 -33 29 c-24 22 -42 29 -72 29 -43 0 -90 -17 -91 -34 0 -6 -4 -2 -8 8
-8 20 -21 24 -58 18z"/>
<path d="M2660 1450 c0 -168 19 -200 115 -200 25 0 57 7 70 16 23 15 25 15 25
0 0 -12 10 -16 40 -16 l40 0 0 160 0 160 -39 0 -39 0 -4 -111 c-3 -124 -12
-139 -75 -139 -45 0 -53 21 -53 144 l0 106 -40 0 -40 0 0 -120z"/>
<path d="M3179 1541 c-29 -29 -37 -68 -23 -106 7 -18 65 -50 111 -59 65 -14
71 -66 8 -66 -20 0 -50 7 -67 16 -31 16 -33 16 -50 -6 -10 -12 -18 -26 -18
-30 0 -17 85 -44 135 -43 64 2 102 24 113 67 18 65 -25 117 -107 130 -47 7
-69 29 -51 51 16 19 53 19 91 -1 29 -14 32 -14 45 3 7 10 14 24 14 30 0 22
-57 43 -115 43 -49 0 -60 -4 -86 -29z"/>
<path d="M3502 1550 c-92 -56 -91 -224 1 -280 44 -27 140 -27 185 0 37 23 39
30 12 55 -19 17 -21 17 -53 0 -42 -22 -100 -14 -122 18 -8 12 -15 25 -15 29 0
4 51 9 113 10 l112 3 -1 40 c-1 88 -60 145 -148 145 -34 0 -62 -7 -84 -20z
m133 -65 c39 -38 32 -45 -50 -45 -46 0 -75 4 -75 10 0 21 49 60 75 60 14 0 37
-11 50 -25z"/>
<path d="M1457 1083 c-4 -3 -7 -39 -7 -80 0 -57 3 -73 14 -73 9 0 16 12 18 33
3 28 7 32 36 35 31 3 32 2 32 -32 0 -26 4 -36 15 -36 13 0 15 13 13 75 -3 76
-20 107 -26 47 -3 -31 -6 -33 -35 -30 -28 3 -32 7 -35 36 -3 31 -11 39 -25 25z"/>
<path d="M1649 1061 c-16 -17 -29 -40 -29 -54 0 -34 46 -77 82 -77 38 0 78 40
78 77 0 33 -7 43 -40 66 -35 24 -57 21 -91 -12z m91 -22 c25 -45 -5 -88 -52
-76 -30 8 -44 47 -28 77 15 27 66 27 80 -1z"/>
<path d="M1807 1083 c-13 -12 -7 -22 16 -25 20 -3 22 -9 25 -65 4 -83 22 -81
22 2 0 63 1 65 25 65 16 0 25 6 25 15 0 11 -13 15 -53 15 -30 0 -57 -3 -60 -7z"/>
<path d="M1961 1082 c-7 -2 -11 -34 -11 -78 l0 -74 55 0 c42 0 55 3 55 15 0
11 -11 15 -41 15 -33 0 -40 3 -37 18 2 11 14 18 36 20 43 4 41 22 -3 22 -28 0
-35 4 -35 20 0 17 7 20 41 20 28 0 39 4 37 12 -4 12 -72 18 -97 10z"/>
<path d="M2310 1009 c0 -60 3 -80 13 -77 6 3 15 24 18 49 5 43 5 43 16 17 18
-42 31 -42 55 -1 l23 38 3 -53 c5 -79 26 -62 30 23 3 79 -10 103 -36 67 -10
-12 -24 -32 -33 -44 l-16 -22 -18 35 c-17 33 -32 49 -47 49 -5 0 -8 -36 -8
-81z"/>
<path d="M2697 1084 c-4 -4 -7 -40 -7 -81 0 -58 3 -73 15 -73 11 0 15 12 15
45 0 25 3 45 8 45 4 0 21 -20 37 -45 44 -66 55 -59 55 35 0 90 -16 107 -26 28
-7 -52 -7 -52 -23 -28 -29 44 -66 82 -74 74z"/>
<path d="M2916 1068 c-9 -12 -16 -27 -16 -33 -1 -5 -9 -28 -20 -50 -11 -22
-19 -43 -20 -47 0 -14 28 -8 34 7 3 9 19 15 41 15 22 0 38 -6 41 -15 4 -8 13
-15 21 -15 17 0 13 17 -22 96 -28 63 -39 71 -59 42z m34 -59 c0 -10 -7 -19
-15 -19 -16 0 -19 9 -9 34 8 20 24 11 24 -15z"/>
<path d="M3080 1083 c-50 -20 -62 -97 -21 -132 47 -41 111 -21 111 34 0 31 -3
35 -25 35 -27 0 -34 -15 -10 -24 25 -9 5 -36 -26 -36 -38 0 -58 37 -41 75 12
27 58 35 79 14 7 -7 13 -7 17 -1 8 13 -32 42 -54 41 -8 0 -22 -3 -30 -6z"/>
<path d="M3377 1083 c-4 -3 -7 -39 -7 -80 0 -57 3 -73 14 -73 11 0 16 14 18
48 l3 47 20 -32 c10 -18 23 -33 27 -33 4 0 15 15 25 33 l18 32 3 -47 c2 -34 7
-48 18 -48 11 0 14 17 14 80 0 94 -15 105 -52 40 -13 -22 -26 -40 -29 -40 -3
0 -15 18 -28 40 -22 39 -31 46 -44 33z"/>
<path d="M3585 1082 c-3 -3 -5 -38 -5 -79 l0 -73 55 0 c42 0 55 3 55 15 0 11
-11 15 -40 15 -33 0 -40 3 -40 20 0 16 7 20 35 20 19 0 35 5 35 10 0 6 -16 10
-35 10 -28 0 -35 4 -35 20 0 17 7 20 41 20 58 0 45 24 -14 25 -26 1 -49 -1
-52 -3z"/>
<path d="M3730 1010 c0 -63 3 -80 14 -80 11 0 16 14 18 47 l3 47 35 -47 c51
-67 61 -62 58 28 -3 81 -21 107 -26 38 -2 -24 -6 -43 -10 -43 -4 1 -22 21 -40
45 -18 25 -37 45 -42 45 -6 0 -10 -35 -10 -80z"/>
<path d="M3897 1084 c-10 -11 2 -24 24 -24 17 0 19 -7 19 -65 0 -51 3 -65 15
-65 12 0 15 14 15 65 0 63 1 65 26 65 15 0 24 5 22 12 -5 13 -109 23 -121 12z"/>
<path d="M4123 1083 c-9 -3 -13 -29 -13 -79 l0 -74 55 0 c42 0 55 3 55 15 0
11 -11 15 -41 15 -33 0 -40 3 -37 18 2 11 14 18 36 20 43 4 41 22 -3 22 -28 0
-35 4 -35 20 0 17 7 20 40 20 41 0 58 19 18 21 -13 0 -32 2 -43 4 -11 1 -26 1
-32 -2z"/>
<path d="M2100 1005 l0 -75 50 0 c38 0 50 4 50 15 0 10 -11 15 -35 15 l-35 0
0 60 c0 47 -3 60 -15 60 -12 0 -15 -15 -15 -75z"/>
<path d="M2537 1018 c-15 -35 -27 -69 -27 -75 0 -18 19 -16 26 2 4 10 20 15
45 15 28 0 39 -4 39 -15 0 -8 7 -15 15 -15 20 0 19 9 -11 85 -34 85 -51 85
-87 3z m53 13 c0 -5 3 -16 6 -25 4 -12 0 -16 -16 -16 -16 0 -20 4 -16 16 3 9
6 20 6 25 0 5 5 9 10 9 6 0 10 -4 10 -9z"/>
<path d="M3220 1004 l0 -75 50 3 c59 4 71 22 18 26 -30 3 -38 7 -38 23 0 14 7
19 30 19 17 0 30 5 30 10 0 6 -13 10 -30 10 -23 0 -30 4 -30 20 0 16 7 20 35
20 19 0 35 5 35 10 0 6 -22 10 -50 10 l-50 0 0 -76z"/>
<path d="M4265 1057 c-10 -37 -1 -120 13 -125 7 -2 12 6 12 22 0 33 23 34 44
1 9 -14 23 -25 31 -25 12 0 11 5 -3 29 -16 28 -15 31 2 50 17 19 18 24 6 46
-11 21 -21 25 -56 25 -37 0 -44 -3 -49 -23z m73 -19 c-2 -15 -10 -23 -23 -23
-13 0 -21 8 -23 23 -3 18 1 22 23 22 22 0 26 -4 23 -22z"/>
<path d="M4420 1005 c0 -60 3 -75 15 -75 9 0 15 9 15 25 0 20 5 25 24 25 31 0
56 24 56 54 0 33 -19 46 -67 46 l-43 0 0 -75z m75 30 c0 -13 -8 -21 -22 -23
-19 -3 -23 1 -23 23 0 22 4 26 23 23 14 -2 22 -10 22 -23z"/>
</g>
</svg>
